HIERARCHY
ROOT Hips
{
	OFFSET 0.000000 8.830580 0.000000
	CHANNELS 6 Xposition Yposition Zposition Zrotation Yrotation Xrotation 
	JOINT Spine
	{
		OFFSET 0.000000 0.010000 0.000000
		CHANNELS 3 Zrotation Yrotation Xrotation
		JOINT Spine1
		{
			OFFSET 0.000000 2.459130 0.000000
			CHANNELS 3 Zrotation Yrotation Xrotation
			JOINT Neck
			{
				OFFSET 0.000000 2.484630 0.000000
				CHANNELS 3 Zrotation Yrotation Xrotation
				JOINT Head_virtual
				{
					OFFSET 0.000000 0.000000 0.000000
					CHANNELS 3 Zrotation Yrotation Xrotation
					JOINT Head
					{
						OFFSET 0.000000 0.927525 0.000000
						CHANNELS 3 Zrotation Yrotation Xrotation
						End Site
						{
							OFFSET 0.000000 0.000000 0.000000
						}
					}
				}
				JOINT LeftUpArm_virtual
				{
					OFFSET 0.000000 0.000000 0.000000
					CHANNELS 3 Zrotation Yrotation Xrotation
					JOINT LeftUpArm
					{
						OFFSET 1.248820 0.000000 0.000000
						CHANNELS 3 Zrotation Yrotation Xrotation
						JOINT LeftForeArm
						{
							OFFSET 2.597580 0.000000 0.000000
							CHANNELS 3 Zrotation Yrotation Xrotation
							JOINT LeftHand
							{
								OFFSET 2.455420 0.000000 0.000000
								CHANNELS 3 Zrotation Yrotation Xrotation
								End Site
								{
									OFFSET 0.000000 0.000000 0.000000
								}
							}
						}
					}
				}
				JOINT RightUpArm_virtual
				{
					OFFSET -0.000000 -0.000000 -0.000000
					CHANNELS 3 Zrotation Yrotation Xrotation
					JOINT RightUpArm
					{
						OFFSET -1.248820 -0.000000 -0.000000
						CHANNELS 3 Zrotation Yrotation Xrotation
						JOINT RightForeArm
						{
							OFFSET -2.597580 -0.000000 -0.000000
							CHANNELS 3 Zrotation Yrotation Xrotation
							JOINT RightHand
							{
								OFFSET -2.455420 -0.000000 -0.000000
								CHANNELS 3 Zrotation Yrotation Xrotation
								End Site
								{
									OFFSET 0.000000 0.000000 0.000000
								}
							}
						}
					}
				}
			}
		}
	}
	JOINT LeftUpLeg
	{
		OFFSET 1.271939 0.000000 0.000000
		CHANNELS 3 Zrotation Yrotation Xrotation
		JOINT LeftLowLeg
		{
			OFFSET 0.000000 -4.342910 0.000000
			CHANNELS 3 Zrotation Yrotation Xrotation
			JOINT LeftFoot
			{
				OFFSET 0.000000 -4.487670 0.000000
				CHANNELS 3 Zrotation Yrotation Xrotation
				JOINT LeftToeBase
				{
					OFFSET 0.000000 0.000000 1.515070
					CHANNELS 3 Zrotation Yrotation Xrotation
					End Site
					{
						OFFSET 0.000000 0.000000 0.000000
					}
				}
			}
		}
	}
	JOINT RightUpLeg
	{
		OFFSET -1.271939 0.000000 0.000000
		CHANNELS 3 Zrotation Yrotation Xrotation
		JOINT RightLowLeg
		{
			OFFSET 0.000000 -4.342910 0.000000
			CHANNELS 3 Zrotation Yrotation Xrotation
			JOINT RightFoot
			{
				OFFSET 0.000000 -4.487670 0.000000
				CHANNELS 3 Zrotation Yrotation Xrotation
				JOINT RightToeBase
				{
					OFFSET 0.000000 0.000000 1.515070
					CHANNELS 3 Zrotation Yrotation Xrotation
					End Site
					{
						OFFSET 0.000000 0.000000 0.000000
					}
				}
			}
		}
	}
}
MOTION
Frames: 17
Frame Time: 0.041667
-16.193737 9.434520 37.530192 -171.719932 23.082740 -174.993853 6.983493 -9.067410 -14.179935 14.102311 -1.258833 41.576467 0.000000 0.000000 0.000000 -13.125623 -76.826932 48.540049 30.523796 50.230278 -29.866894 -32.461800 -4.203230 -6.114170 -34.864399 -6.154280 31.046801 0.000000 -32.208199 0.000000 7.588950 7.810500 6.444670 20.528999 4.764280 0.880678 21.109600 20.973700 13.654400 0.000000 45.104599 0.000000 -6.239320 -5.324700 26.855000 12.807670 14.504463 3.354170 0.000000 0.000000 10.983700 -11.978856 8.090271 1.988397 0.000000 0.000000 -9.685530 6.428873 13.182137 -10.056915 0.000000 0.000000 15.885200 14.913595 -23.970368 10.064062 0.000000 0.000000 -9.929520 
-16.144542 9.444302 37.529716 -171.989826 21.313928 -174.686696 6.615368 -10.945800 -13.651431 16.567382 -1.474853 41.187708 0.000000 0.000000 0.000000 -13.041736 -77.180303 47.909784 31.745584 49.419132 -29.940176 -33.739899 -2.662150 -4.685590 -35.017502 -7.947740 31.454700 0.000000 -32.436798 0.000000 7.744360 7.809620 5.430780 19.722099 3.945680 0.248702 20.999399 18.265499 16.020300 0.000000 44.827499 0.000000 -5.581430 -5.420960 25.675200 12.614619 12.693748 1.047126 0.000000 0.000000 13.539200 -12.354503 8.655358 1.851291 0.000000 0.000000 -10.243850 6.565797 11.677133 -9.689879 0.000000 0.000000 14.758000 14.468143 -24.219044 9.928291 0.000000 0.000000 -9.895800 
-16.097549 9.453277 37.532138 -172.420690 19.531348 -174.365355 6.299682 -12.650190 -13.323870 18.443942 -1.820560 40.836993 0.000000 0.000000 0.000000 -12.903359 -76.986570 47.086474 32.791626 48.503802 -29.998358 -34.178699 -2.579600 -4.683830 -35.555901 -6.877400 31.789900 0.000000 -33.503899 0.000000 8.445310 7.623390 3.874160 19.008801 3.319270 0.434272 20.909800 15.579300 17.960300 0.000000 44.852200 0.000000 -4.486860 -5.735510 22.363501 12.315230 11.069904 -1.457820 0.000000 0.000000 16.305901 -12.651044 9.041600 1.972215 0.000000 0.000000 -10.916750 6.447788 11.117482 -9.479936 0.000000 0.000000 13.738600 14.746244 -25.055598 9.383685 0.000000 0.000000 -9.797700 
-16.052571 9.464526 37.532292 -172.844454 17.953902 -174.159498 6.219545 -13.857905 -13.120620 19.482421 -2.349442 40.828101 0.000000 0.000000 0.000000 -12.682033 -76.877108 46.500144 33.439422 48.139766 -30.059964 -34.217899 -2.406510 -4.767610 -36.063000 -6.028260 32.183701 0.000000 -34.543201 0.000000 9.043100 7.374730 2.234500 18.501600 2.716540 0.310876 21.320299 12.868900 19.952101 0.000000 45.013500 0.000000 -2.278750 -6.098690 18.028601 12.044165 9.456835 -3.743547 0.000000 0.000000 19.016899 -13.128123 9.632441 2.310289 0.000000 0.000000 -11.829410 6.302428 11.039961 -9.356821 0.000000 0.000000 13.102800 15.219598 -26.154350 8.807127 0.000000 0.000000 -9.800170 
-16.009789 9.479066 37.528613 -173.218923 16.722177 -174.172347 6.351794 -14.532795 -12.942857 19.870872 -2.963437 41.179794 0.000000 0.000000 0.000000 -12.432921 -76.851697 46.145469 33.838047 48.210707 -30.137278 -34.146500 -2.354280 -4.756050 -36.271500 -5.385600 32.653400 0.000000 -35.460602 0.000000 9.518220 7.016060 -0.645156 18.158300 2.081530 -0.103501 22.050699 10.091600 21.998400 0.000000 45.358501 0.000000 0.601358 -5.846140 12.736400 11.873456 8.304655 -5.462572 0.000000 0.000000 21.356701 -13.743252 9.998017 2.925566 0.000000 0.000000 -12.937290 6.243855 10.682350 -9.051690 0.000000 0.000000 12.555900 15.341080 -26.877437 8.590929 0.000000 0.000000 -9.694900 
-15.969415 9.492582 37.521442 -173.621387 15.852234 -174.237937 6.609305 -14.795115 -12.818982 19.766893 -3.492519 41.522952 0.000000 0.000000 0.000000 -12.645126 -76.717782 46.463310 33.923655 48.475271 -30.371135 -33.957600 -2.403950 -4.786360 -36.354301 -4.707700 33.214401 0.000000 -36.147598 0.000000 9.697260 6.776700 -3.506150 17.958099 1.397190 -0.608979 23.053301 7.128700 23.896601 0.000000 46.057499 0.000000 3.677420 -5.043760 5.877070 11.660804 7.430553 -6.867919 0.000000 0.000000 23.418699 -14.529748 10.345958 3.629386 0.000000 0.000000 -14.127514 6.142747 10.204244 -8.674644 0.000000 0.000000 12.018600 15.111629 -27.185132 8.564568 0.000000 0.000000 -9.603460 
-15.930059 9.503814 37.510886 -174.105540 15.347785 -174.390584 6.922722 -14.646480 -12.677997 19.200232 -3.869831 41.787245 0.000000 0.000000 0.000000 -13.276404 -76.339071 47.392847 33.857736 48.970305 -30.791977 -33.632099 -2.509570 -4.885730 -36.356098 -3.996180 33.796700 0.000000 -36.603001 0.000000 9.515680 6.569380 -5.542290 18.108500 0.563335 -1.194870 24.013000 4.071480 25.707001 0.000000 47.321602 0.000000 6.304290 -4.219960 -2.027220 11.354122 6.845943 -7.894813 0.000000 0.000000 25.104500 -15.482544 10.658358 4.361387 0.000000 0.000000 -15.387970 5.945115 9.894448 -8.243691 0.000000 0.000000 11.543200 15.204054 -27.307034 8.259686 0.000000 0.000000 -9.267290 
-15.893603 9.513567 37.499796 -174.570593 15.184086 -174.530344 7.250799 -14.347765 -12.491924 18.474355 -4.134428 41.898537 0.000000 0.000000 0.000000 -14.058631 -75.730076 48.375135 33.364812 49.476983 -31.526955 -33.296700 -2.521300 -4.889740 -36.406502 -3.351610 34.119202 0.000000 -36.902199 0.000000 9.030720 6.508530 -6.200960 18.337000 -0.199904 -1.526560 24.943100 0.971780 27.267700 0.000000 49.129002 0.000000 8.347120 -4.512930 -7.568280 11.022143 6.272814 -8.682883 0.000000 0.000000 26.518400 -16.549780 11.136288 4.868588 0.000000 0.000000 -16.221950 5.747627 9.524643 -7.932442 0.000000 0.000000 11.244500 14.984477 -27.197335 8.204953 0.000000 0.000000 -9.193100 
-15.860410 9.523198 37.490294 -174.972972 15.358541 -174.555515 7.677115 -13.854520 -12.297110 17.451716 -4.341387 41.849779 0.000000 0.000000 0.000000 -14.535294 -74.631415 48.816620 32.598518 50.084815 -32.521445 -32.932800 -2.399310 -4.905110 -36.478901 -2.736410 34.240799 0.000000 -37.014500 0.000000 8.564370 6.554430 -5.616270 18.623899 -0.927016 -1.864980 25.956400 -2.120460 28.560200 0.000000 51.419701 0.000000 8.888410 -2.839500 -18.622101 10.697818 5.839254 -9.392946 0.000000 0.000000 27.791901 -17.454487 11.750138 5.109219 0.000000 0.000000 -16.337800 5.549608 9.407562 -7.811492 0.000000 0.000000 11.045500 14.581048 -27.058292 8.349593 0.000000 0.000000 -9.230260 
-15.835229 9.532299 37.487374 -175.391945 15.948207 -174.305558 8.185932 -13.161794 -12.116527 16.118971 -4.450375 41.534039 0.000000 0.000000 0.000000 -14.811676 -73.203575 48.880531 31.176944 50.998118 -34.046027 -32.570900 -2.159930 -5.010970 -36.555000 -2.034110 34.207001 0.000000 -36.981499 0.000000 8.207580 6.627630 -4.512900 19.027100 -1.694790 -2.367210 26.968599 -4.804070 30.371799 0.000000 53.125000 0.000000 9.089830 -2.642670 -26.464701 10.242515 5.500122 -10.236132 0.000000 0.000000 28.954201 -18.209402 12.632695 5.042882 0.000000 0.000000 -15.769880 5.192153 9.703428 -8.168768 0.000000 0.000000 11.068300 14.400578 -26.863473 8.412130 0.000000 0.000000 -9.150320 
-15.811219 9.541857 37.477810 -175.781722 16.530214 -174.009240 8.792026 -12.465913 -12.160310 14.457087 -4.757683 41.355042 0.000000 0.000000 0.000000 -14.654140 -71.536825 48.257679 29.085274 52.240320 -36.041727 -32.078999 -1.918220 -5.107490 -36.712502 -1.334430 34.054699 0.000000 -36.770901 0.000000 7.911690 6.728380 -3.652100 19.410000 -2.281490 -3.009200 28.141100 -7.460830 31.727900 0.000000 54.993401 0.000000 9.933570 -3.413450 -34.276798 9.776783 4.975888 -11.061209 0.000000 0.000000 30.051300 -18.244108 13.682737 4.857779 0.000000 0.000000 -15.542308 4.853034 9.783920 -8.481903 0.000000 0.000000 10.999200 14.016103 -26.492595 8.684675 0.000000 0.000000 -9.232360 
-15.793871 9.550175 37.471177 -176.204232 17.460662 -173.671384 9.430926 -11.519821 -12.096753 12.463774 -5.008298 41.098544 0.000000 0.000000 0.000000 -14.243296 -69.607481 47.235195 26.312709 53.969178 -38.722490 -31.473101 -1.684170 -5.302230 -36.867199 -0.589943 34.056599 0.000000 -36.456699 0.000000 7.864040 6.918590 -3.357170 20.015699 -2.612020 -3.568880 29.188801 -10.045300 32.679901 0.000000 56.780300 0.000000 10.696400 -2.975730 -40.970699 9.198317 4.518664 -11.832207 0.000000 0.000000 31.081400 -16.677421 14.847453 4.862421 0.000000 0.000000 -16.653370 4.414295 9.999286 -8.946285 0.000000 0.000000 11.010200 13.731536 -25.947141 8.898077 0.000000 0.000000 -9.246870 
-15.779756 9.557158 37.467076 -176.567174 18.626895 -173.304658 9.878555 -10.816351 -11.989792 10.900602 -5.232338 40.939574 0.000000 0.000000 0.000000 -13.393200 -67.328319 44.923047 23.267877 55.217949 -41.626228 -30.992100 -1.548060 -5.403920 -37.151299 0.088740 34.174900 0.000000 -36.049801 0.000000 7.822880 7.125460 -3.580730 20.092501 -3.307480 -4.028000 30.488199 -11.752400 33.715401 0.000000 58.270699 0.000000 11.088500 -3.256980 -46.828999 8.673225 4.047961 -12.578892 0.000000 0.000000 32.126801 -14.850048 15.359115 4.873559 0.000000 0.000000 -17.458200 3.962619 10.662799 -9.545401 0.000000 0.000000 11.158500 13.502732 -25.569076 9.054711 0.000000 0.000000 -9.219680 
-15.768505 9.562323 37.465363 -176.829630 19.983159 -172.887830 10.342425 -10.009215 -11.753483 9.213041 -5.414246 40.637830 0.000000 0.000000 0.000000 -13.018428 -64.680711 43.131438 19.703221 56.623993 -45.196891 -30.491400 -1.384050 -5.382410 -37.301102 0.591321 34.535999 0.000000 -35.643200 0.000000 7.827820 7.369650 -4.044810 20.485300 -3.615640 -4.214640 31.468500 -13.419500 34.442299 0.000000 59.338100 0.000000 11.574800 -2.151240 -53.044800 8.294067 3.392728 -13.294026 0.000000 0.000000 33.171200 -14.167116 15.128080 4.609056 0.000000 0.000000 -17.759220 3.559544 11.445274 -10.222497 0.000000 0.000000 11.324900 13.195854 -25.163659 9.318106 0.000000 0.000000 -9.231890 
-15.756408 9.565947 37.461021 -176.991738 21.365894 -172.498078 10.749541 -9.328576 -11.592596 7.685365 -5.646013 40.582569 0.000000 0.000000 0.000000 -12.783214 -61.923894 41.199108 15.926751 57.751272 -49.046320 -29.995100 -1.315290 -5.462770 -37.443100 1.051220 35.102200 0.000000 -35.334499 0.000000 7.621200 7.536950 -3.945340 20.721399 -4.048190 -4.838090 32.449299 -14.852800 35.323299 0.000000 60.428600 0.000000 12.329400 -1.125880 -57.031700 8.089292 2.550320 -13.862104 0.000000 0.000000 34.007702 -14.191827 14.275074 4.359765 0.000000 0.000000 -18.242200 3.240311 12.333515 -10.762140 0.000000 0.000000 11.349100 12.889140 -24.836413 9.610344 0.000000 0.000000 -9.241600 
-15.749714 9.566854 37.467589 -177.034888 23.063407 -171.857041 10.984555 -8.681507 -11.351659 6.532883 -5.685042 40.414133 0.000000 0.000000 0.000000 -12.638882 -58.807676 38.951838 12.717244 58.453480 -52.414540 -29.558800 -1.329290 -5.560510 -37.577202 1.443270 35.850399 0.000000 -35.161800 0.000000 7.426520 7.605940 -3.509140 21.002800 -4.130420 -4.859060 33.301300 -16.028601 35.530499 0.000000 61.926498 0.000000 12.728300 -0.880039 -58.787601 7.985182 2.095751 -14.625701 0.000000 0.000000 34.724998 -13.943226 13.176167 4.338219 0.000000 0.000000 -19.062440 2.849693 13.784195 -11.665685 0.000000 0.000000 11.434500 12.719353 -24.634154 9.917479 0.000000 0.000000 -9.255460 
-15.741999 9.567148 37.470182 -177.009819 24.960714 -171.347477 11.110239 -7.984229 -11.051054 5.346490 -5.689541 40.448905 0.000000 0.000000 0.000000 -12.774795 -55.710483 36.927054 8.926319 59.057398 -56.156591 -29.086000 -1.338190 -5.644120 -37.649799 1.671770 36.477901 0.000000 -35.132500 0.000000 6.896680 7.744040 -2.439560 21.339600 -3.975170 -5.032410 34.130402 -17.099300 35.916302 0.000000 63.132000 0.000000 13.039000 -0.479986 -60.480400 7.968211 1.852829 -14.999827 0.000000 0.000000 35.002399 -13.437607 12.110287 4.263757 0.000000 0.000000 -20.044940 2.489844 15.390442 -12.320995 0.000000 0.000000 11.339800 12.542547 -24.372828 10.305822 0.000000 0.000000 -9.314280 
